<svg width="512" height="512" viewBox="0 0 108 108" fill="none" xmlns="http://www.w3.org/2000/svg">
  <rect width="108" height="108" rx="24" fill="#F6F1E6"/>
  <rect x="24" y="22" width="60" height="64" rx="12" fill="#FFFDF8"/>
  <rect x="30" y="16" width="12" height="14" rx="3" fill="#2D6A61"/>
  <rect x="66" y="16" width="12" height="14" rx="3" fill="#2D6A61"/>
  <rect x="24" y="31" width="60" height="12" rx="6" fill="#DCE7E1"/>
  <path d="M54 41C54 41 44 51.14 44 56.9C44 62.42 48.48 66.9 54 66.9C59.52 66.9 64 62.42 64 56.9C64 51.14 54 41 54 41Z" fill="#F0C84B"/>
  <path d="M54 45.8C54 45.8 47.4 53.05 47.4 57.1C47.4 60.75 50.35 63.7 54 63.7C57.65 63.7 60.6 60.75 60.6 57.1C60.6 53.05 54 45.8 54 45.8Z" fill="#F6D978"/>
  <path d="M49 68H72C73.1 68 74 68.9 74 70C74 71.1 73.1 72 72 72H49C47.9 72 47 71.1 47 70C47 68.9 47.9 68 49 68Z" fill="#B7C8C0"/>
  <path d="M39 75H72C73.1 75 74 75.9 74 77C74 78.1 73.1 79 72 79H39C37.9 79 37 78.1 37 77C37 75.9 37.9 75 39 75Z" fill="#B7C8C0"/>
  <circle cx="37" cy="72" r="6" fill="#E7F0CB"/>
  <path d="M34.2 72L36.3 74.1L40.2 70.2" stroke="#58733A" stroke-width="2.4" stroke-linecap="round" stroke-linejoin="round"/>
</svg>
